<svg width="137" height="41" viewBox="0 0 137 41" fill="none" xmlns="http://www.w3.org/2000/svg">
<path d="M51.8202 5.36C52.9002 5.36 53.6935 5.68 54.2002 6.32C54.7202 6.96 54.9802 7.81333 54.9802 8.88V10.14H53.5002V8.8C53.5002 8.16 53.3668 7.66667 53.1002 7.32C52.8468 6.96 52.4335 6.78 51.8602 6.78C51.3002 6.78 50.8868 6.96 50.6202 7.32C50.3535 7.66667 50.2202 8.16 50.2202 8.8V16.2C50.2202 16.84 50.3535 17.34 50.6202 17.7C50.8868 18.0467 51.3002 18.22 51.8602 18.22C52.4335 18.22 52.8468 18.0467 53.1002 17.7C53.3668 17.34 53.5002 16.84 53.5002 16.2V14.38H54.9802V16.12C54.9802 17.1867 54.7202 18.04 54.2002 18.68C53.6935 19.32 52.9002 19.64 51.8202 19.64C50.7535 19.64 49.9602 19.32 49.4402 18.68C48.9335 18.04 48.6802 17.1867 48.6802 16.12V8.88C48.6802 8.34667 48.7402 7.86667 48.8602 7.44C48.9935 7 49.1868 6.62667 49.4402 6.32C49.7068 6.01333 50.0335 5.78 50.4202 5.62C50.8202 5.44667 51.2868 5.36 51.8202 5.36Z" fill="#454256"/>
<path d="M58.5378 19.5V6.92H55.9578V5.5H62.6778V6.92H60.0978V19.5H58.5378Z" fill="#454256"/>
<path d="M68.0392 16.42C67.9192 16.94 67.7726 17.4 67.5992 17.8C67.4392 18.2 67.2192 18.5333 66.9392 18.8C66.6592 19.0667 66.3059 19.26 65.8792 19.38C65.4659 19.5 64.9392 19.5467 64.2992 19.52V18.12C64.8992 18.1467 65.3459 18.06 65.6392 17.86C65.9459 17.6467 66.1659 17.2733 66.2992 16.74L66.6192 15.82L63.3992 5.5H64.9592L66.3792 10.36L67.3392 13.88L68.1592 10.36L69.4192 5.5H71.0392L68.0392 16.42Z" fill="#454256"/>
<path d="M79.0791 21.42V19.5H73.3591V21.42H71.8591V18.12H72.7591C72.9991 17.8533 73.1524 17.5533 73.2191 17.22C73.2991 16.8867 73.3524 16.5067 73.3791 16.08L73.9191 5.5H79.5391V18.12H80.5991V21.42H79.0791ZM74.8991 16.06C74.8724 16.5667 74.8124 16.98 74.7191 17.3C74.6391 17.62 74.4857 17.8933 74.2591 18.12H77.9591V6.92H75.3591L74.8991 16.06Z" fill="#454256"/>
<path d="M83.5242 6.92V19.5H81.9842V5.5H87.5642V6.92H83.5242Z" fill="#454256"/>
<path d="M88.9731 8.88C88.9731 7.8 89.2331 6.94667 89.7531 6.32C90.2865 5.68 91.0931 5.36 92.1731 5.36C93.2531 5.36 94.0598 5.68 94.5931 6.32C95.1265 6.94667 95.3931 7.8 95.3931 8.88V16.12C95.3931 17.1867 95.1265 18.04 94.5931 18.68C94.0598 19.32 93.2531 19.64 92.1731 19.64C91.0931 19.64 90.2865 19.32 89.7531 18.68C89.2331 18.04 88.9731 17.1867 88.9731 16.12V8.88ZM90.5131 16.2C90.5131 16.84 90.6465 17.34 90.9131 17.7C91.1931 18.0467 91.6131 18.22 92.1731 18.22C92.7465 18.22 93.1665 18.0467 93.4331 17.7C93.6998 17.34 93.8331 16.84 93.8331 16.2V8.8C93.8331 8.16 93.6998 7.66667 93.4331 7.32C93.1665 6.96 92.7465 6.78 92.1731 6.78C91.6131 6.78 91.1931 6.96 90.9131 7.32C90.6465 7.66667 90.5131 8.16 90.5131 8.8V16.2Z" fill="#454256"/>
<path d="M99.9266 5.5C101.033 5.5 101.833 5.80667 102.327 6.42C102.82 7.02 103.067 7.85333 103.067 8.92V10.6C103.067 11.72 102.8 12.5667 102.267 13.14C101.747 13.7 100.927 13.98 99.8066 13.98H98.4266V19.5H96.8666V5.5H99.9266ZM99.8066 12.58C100.393 12.58 100.827 12.44 101.107 12.16C101.387 11.8667 101.527 11.38 101.527 10.7V8.84C101.527 8.2 101.4 7.72 101.147 7.4C100.907 7.08 100.5 6.92 99.9266 6.92H98.4266V12.58H99.8066Z" fill="#454256"/>
<path d="M104.168 8.88C104.168 7.8 104.428 6.94667 104.948 6.32C105.482 5.68 106.288 5.36 107.368 5.36C108.448 5.36 109.255 5.68 109.788 6.32C110.322 6.94667 110.588 7.8 110.588 8.88V16.12C110.588 17.1867 110.322 18.04 109.788 18.68C109.255 19.32 108.448 19.64 107.368 19.64C106.288 19.64 105.482 19.32 104.948 18.68C104.428 18.04 104.168 17.1867 104.168 16.12V8.88ZM105.708 16.2C105.708 16.84 105.842 17.34 106.108 17.7C106.388 18.0467 106.808 18.22 107.368 18.22C107.942 18.22 108.362 18.0467 108.628 17.7C108.895 17.34 109.028 16.84 109.028 16.2V8.8C109.028 8.16 108.895 7.66667 108.628 7.32C108.362 6.96 107.942 6.78 107.368 6.78C106.808 6.78 106.388 6.96 106.108 7.32C105.842 7.66667 105.708 8.16 105.708 8.8V16.2Z" fill="#454256"/>
<path d="M118.962 21.42V19.5H113.242V21.42H111.742V18.12H112.642C112.882 17.8533 113.035 17.5533 113.102 17.22C113.182 16.8867 113.235 16.5067 113.262 16.08L113.802 5.5H119.422V18.12H120.482V21.42H118.962ZM114.782 16.06C114.755 16.5667 114.695 16.98 114.602 17.3C114.522 17.62 114.369 17.8933 114.142 18.12H117.842V6.92H115.242L114.782 16.06Z" fill="#454256"/>
<path d="M121.727 8.88C121.727 7.8 121.987 6.94667 122.507 6.32C123.04 5.68 123.847 5.36 124.927 5.36C126.007 5.36 126.814 5.68 127.347 6.32C127.88 6.94667 128.147 7.8 128.147 8.88V16.12C128.147 17.1867 127.88 18.04 127.347 18.68C126.814 19.32 126.007 19.64 124.927 19.64C123.847 19.64 123.04 19.32 122.507 18.68C121.987 18.04 121.727 17.1867 121.727 16.12V8.88ZM123.267 16.2C123.267 16.84 123.4 17.34 123.667 17.7C123.947 18.0467 124.367 18.22 124.927 18.22C125.5 18.22 125.92 18.0467 126.187 17.7C126.454 17.34 126.587 16.84 126.587 16.2V8.8C126.587 8.16 126.454 7.66667 126.187 7.32C125.92 6.96 125.5 6.78 124.927 6.78C124.367 6.78 123.947 6.96 123.667 7.32C123.4 7.66667 123.267 8.16 123.267 8.8V16.2Z" fill="#454256"/>
<path d="M132 13.42L131.18 14.8V19.5H129.62V5.5H131.18V12.26L134.9 5.5H136.48L132.94 11.88L136.6 19.5H135L132 13.42Z" fill="#454256"/>
<path d="M53.9602 39.48H52.4602L50.1402 28.34V39.5H48.7802V25.5H50.9602L53.2602 36.68L55.4802 25.5H57.6602V39.5H56.1802V28.24L53.9602 39.48Z" fill="#454256"/>
<path d="M62.9689 33L60.8889 39.5H59.2689V25.5H60.6489V35.94L62.0889 31.52L64.1289 25.5H65.8689V39.5H64.4689V28.36L62.9689 33Z" fill="#454256"/>
<path d="M70.4125 25.36C70.9459 25.36 71.4059 25.4467 71.7925 25.62C72.1925 25.78 72.5192 26.0133 72.7725 26.32C73.0392 26.6267 73.2325 27 73.3525 27.44C73.4859 27.8667 73.5525 28.3467 73.5525 28.88V36.12C73.5525 37.1867 73.2925 38.04 72.7725 38.68C72.2659 39.32 71.4792 39.64 70.4125 39.64C69.3459 39.64 68.5525 39.32 68.0325 38.68C67.5259 38.04 67.2725 37.1867 67.2725 36.12V34.6H68.7325V36.2C68.7325 36.84 68.8659 37.34 69.1325 37.7C69.3992 38.0467 69.8125 38.22 70.3725 38.22C70.9325 38.22 71.3459 38.0467 71.6125 37.7C71.8792 37.34 72.0125 36.84 72.0125 36.2V32.96H69.5725V31.56H72.0125V28.8C72.0125 28.16 71.8792 27.6667 71.6125 27.32C71.3459 26.96 70.9325 26.78 70.3725 26.78C69.8125 26.78 69.3992 26.96 69.1325 27.32C68.8659 27.6667 68.7325 28.16 68.7325 28.8V29.92H67.2925V28.88C67.2925 28.3467 67.3525 27.8667 67.4725 27.44C67.6059 27 67.7992 26.6267 68.0525 26.32C68.3059 26.0133 68.6259 25.78 69.0125 25.62C69.4125 25.4467 69.8792 25.36 70.4125 25.36Z" fill="#454256"/>
<path d="M77.1902 39.5V26.92H74.6102V25.5H81.3302V26.92H78.7502V39.5H77.1902Z" fill="#454256"/>
<path d="M13.5 25L9 26.5V29M13.5 25V6.5H28.5V25M13.5 25H17.5M28.5 25L33 26.5V29M28.5 25H24.5M24.5 25V1H17.5V25M24.5 25H17.5M33 29H42M33 29V38.5M9 29H0M9 29V38.5M9 38.5V39.5H33V38.5M9 38.5H0M33 38.5H42" stroke="#FF5B5A" stroke-width="1.5"/>
<rect x="19.6" y="8.6" width="0.8" height="0.8" stroke="#FF5B5A" stroke-width="0.2"/>
<rect x="19.6" y="10.6" width="0.8" height="0.8" stroke="#FF5B5A" stroke-width="0.2"/>
<rect x="19.6" y="12.6" width="0.8" height="0.8" stroke="#FF5B5A" stroke-width="0.2"/>
<rect x="19.6" y="14.6" width="0.8" height="0.8" stroke="#FF5B5A" stroke-width="0.2"/>
<rect x="19.6" y="16.6" width="0.8" height="0.8" stroke="#FF5B5A" stroke-width="0.2"/>
<rect x="19.6" y="18.6" width="0.8" height="0.8" stroke="#FF5B5A" stroke-width="0.2"/>
<rect x="19.6" y="20.6" width="0.8" height="0.8" stroke="#FF5B5A" stroke-width="0.2"/>
<rect x="19.6" y="22.6" width="0.8" height="0.8" stroke="#FF5B5A" stroke-width="0.2"/>
<rect x="21.6" y="8.6" width="0.8" height="0.8" stroke="#FF5B5A" stroke-width="0.2"/>
<rect x="21.6" y="10.6" width="0.8" height="0.8" stroke="#FF5B5A" stroke-width="0.2"/>
<rect x="21.6" y="12.6" width="0.8" height="0.8" stroke="#FF5B5A" stroke-width="0.2"/>
<rect x="21.6" y="14.6" width="0.8" height="0.8" stroke="#FF5B5A" stroke-width="0.2"/>
<rect x="21.6" y="16.6" width="0.8" height="0.8" stroke="#FF5B5A" stroke-width="0.2"/>
<rect x="21.6" y="20.6" width="0.8" height="0.8" stroke="#FF5B5A" stroke-width="0.2"/>
<rect x="21.6" y="18.6" width="0.8" height="0.8" stroke="#FF5B5A" stroke-width="0.2"/>
<rect x="21.6" y="22.6" width="0.8" height="0.8" stroke="#FF5B5A" stroke-width="0.2"/>
</svg>
